#
# Exported by OpenBRF -- marco tarini
#
s female_head.lod1
newmtl default
Ka 0.8 0.8 0.8
Kd 0.2 0.2 0.2
usemtl default
v 0.00087 -0.036161 -0.067926
v 0.00087 -0.069951 -0.001314
v -0.055655 0.026051 -0.002561
v 0.00087 -0.092284 0.120283
v -0.081216 0.026052 0.101057
v 0.00087 -0.070696 0.188612
v -0.064234 0.026052 0.204676
v 0.00087 0 0.232518
v 0.065973 0.026051 0.204676
v 0.082956 0.026051 0.101057
v 0.057394 0.026051 -0.002561
v 0.00087 0.096137 -0.007549
v 0.00087 0.115621 0.093127
v 0.00087 0.08368 0.20025
vn 0 -0.131411 -0.991328
vt 0.503579 0.00751698
vn -0.007316 -0.927686 -0.37329
vt 0.986956 0.270198
vn -0.007316 -0.927686 -0.37329
vt 0.027972 0.242854
vn -0.914422 -0.010706 -0.404621
vt 0.712128 0.18232
vn -0.006561 -0.999974 0.002821
vt 1.05922 0.646325
vn -0.006561 -0.999974 0.002821
vt -0.056012 0.638512
vn -0.99725 0.07407 0.002335
vt 0.774907 0.583991
vn 0.000726 -0.748251 0.663416
vt 1.02992 0.962058
vn 0.000726 -0.748251 0.663416
vt -0.026715 0.971824
vn -0.765011 0.008372 0.643963
vt 0.708895 0.960271
vn 0 -0.066201 0.997806
vt 0.503579 0.998585
vn 0.756088 0.004254 0.654456
vt 0.296268 0.960271
vn 0.997083 0.076286 0.002543
vt 0.236116 0.578131
vn 0.908882 -0.005226 -0.41702
vt 0.300847 0.18232
vn 0.002294 0.719313 -0.694682
vt 0.503567 0.096434
vn -0.002764 0.999989 0.003719
vt 0.499631 0.519627
vn -0.004507 0.693035 0.72089
vt 0.503579 0.942693
f 1/1/1 2/2/2 3/4/4
f 3/4/4 2/2/2 4/5/5
f 4/5/5 5/7/7 3/4/4
f 5/7/7 4/5/5 6/8/8
f 6/8/8 7/10/10 5/7/7
f 7/10/10 6/8/8 8/11/11
f 6/9/9 9/12/12 8/11/11
f 4/6/6 10/13/13 9/12/12
f 9/12/12 6/9/9 4/6/6
f 2/3/3 11/14/14 10/13/13
f 10/13/13 4/6/6 2/3/3
f 11/14/14 2/3/3 1/1/1
f 1/1/1 12/15/15 11/14/14
f 11/14/14 12/15/15 13/16/16
f 13/16/16 10/13/13 11/14/14
f 10/13/13 13/16/16 14/17/17
f 14/17/17 9/12/12 10/13/13
f 9/12/12 14/17/17 8/11/11
f 14/17/17 7/10/10 8/11/11
f 13/16/16 5/7/7 7/10/10
f 7/10/10 14/17/17 13/16/16
f 12/15/15 3/4/4 5/7/7
f 5/7/7 13/16/16 12/15/15
f 1/1/1 3/4/4 12/15/15
