#
# Exported by OpenBRF -- marco tarini
#
s man_hair_c
newmtl hair_blonde
Ka 0.8 0.8 0.8
Kd 0.2 0.2 0.2
usemtl hair_blonde
v 0.07083 0.110695 0.192365
v 0.104543 0.064159 0.181064
v 0.10674 0.063162 0.145062
v 0.072866 0.110224 0.158261
v 0.065863 0.084921 0.225521
v 0.000276 0.120682 0.199583
v 0.001335 0.094104 0.233465
v 0.119392 -0.060049 0.111813
v 0.071677 -0.110222 0.168547
v 0.072019 -0.11324 0.087179
v 0.082473 -0.081524 0.085847
v 0.004214 -0.136488 0.089244
v 0.005422 -0.137306 0.171828
v 0.117479 0.001014 0.174758
v 0.120948 -0.002767 0.129253
v 0.100363 0.022689 0.221663
v 0.07103 0.122255 0.162692
v -0.000462 0.133914 0.168397
v 0.112392 -0.059234 0.170488
v 0.002484 0.05829 0.259734
v 0.062458 0.046081 0.251598
v 0.004173 -0.00647 0.280372
v 0.043479 -0.016286 0.271403
v 0.062141 -0.048976 0.262716
v 0.004886 -0.053995 0.258879
v 0.041591 -0.076764 0.255151
v 0.005597 -0.088765 0.256385
v 0.09182 -0.052571 0.215161
v 0.062373 -0.094715 0.215311
v 0.005714 -0.117588 0.221356
v 0.06341 -0.043956 0.107438
v 0.081155 -0.00412 0.122386
v 0.05015 0.08827 0.157776
v 3e-06 0.108263 0.162311
v 0.070818 0.055162 0.141093
v 0.002861 -0.083643 0.074879
v 0.03441 -0.062502 0.080863
v 0.049062 0.079959 0.154445
v -0.06995 0.107668 0.194395
v -0.071922 0.106756 0.158974
v -0.10514 0.058607 0.148116
v -0.101944 0.05972 0.18404
v -0.113431 -0.065054 0.115169
v -0.076386 -0.084939 0.088137
v -0.064545 -0.116176 0.089148
v -0.06199 -0.113095 0.170474
v -0.112332 -0.003926 0.17807
v -0.116944 -0.007881 0.132682
v -0.094818 0.018493 0.224476
v -0.104786 -0.063903 0.173618
v -0.062928 0.082152 0.227377
v -0.057106 0.043511 0.253322
v -0.034903 -0.017971 0.272533
v -0.052385 -0.051438 0.264366
v -0.030887 -0.078322 0.256196
v -0.08324 -0.056334 0.217684
v -0.052018 -0.097174 0.21696
v -0.077343 -0.007528 0.124671
v -0.058222 -0.046754 0.109204
v -0.069036 0.052156 0.143109
v -0.029256 -0.06387 0.08178
v -0.055581 0.073056 0.154577
v -0.034837 0.114175 0.196989
v -0.025101 0.127946 0.166256
v -0.023479 0.091852 0.15975
v -0.041851 0.121797 0.1644
v 0.051998 0.072061 0.192639
vn 0.545156 0.77287 0.324772
vt -0.012655 -0.447709
vn 0.545156 0.77287 0.324772
vt 0.149412 0.399453
vn 0.911115 0.348571 0.219927
vt 0.203857 -0.49355
vn 0.911115 0.348571 0.219927
vt 0.203857 -0.49355
vn 0.638567 0.517533 -0.569554
vt 0.208454 -0.685986
vn 0.638567 0.517533 -0.569554
vt 0.208454 -0.685986
vn 0.013068 0.879422 -0.475864
vt 0.010373 -0.637968
vn 0.497077 0.544054 0.675958
vt 0.179706 0.574105
vn 0.497077 0.544054 0.675958
vt 0.107305 -0.307823
vn -0.014707 0.865405 0.500857
vt 0.515091 0.419296
vn 0.002081 0.678524 0.734575
vt 0.514245 0.598451
vn 0.884656 -0.15243 -0.440623
vt 0.781702 -0.785639
vn 0.625999 -0.759925 0.175043
vt 1.01521 -0.548602
vn 0.625999 -0.759925 0.175043
vt 0.16147 0.551562
vn 0.484501 -0.631751 -0.605102
vt 1.02917 -0.89267
vn 0.484501 -0.631751 -0.605102
vt 0.154033 0.1762
vn 0.547602 -0.073885 -0.833471
vt 0.881592 -0.897651
vn 0.097845 -0.763968 -0.637792
vt 0.507811 0.199504
vn 0.013357 -0.979655 0.200246
vt 0.507617 0.583771
vn 0.977994 0.035132 0.205654
vt 0.497652 -0.519514
vn 0.771184 0.241729 -0.588933
vt 0.515197 -0.71174
vn 0.836903 0.120312 0.533965
vt 0.396856 -0.322158
vn 0.836903 0.120312 0.533965
vt 0.396856 -0.322158
vn 0.680822 0.437961 -0.587087
vt 0.194511 0.207819
vn 0.680822 0.437961 -0.587087
vt -0.066476 -0.613487
vn -0.010336 0.871482 -0.490319
vt 0.51556 0.219322
vn 0.90092 -0.362815 0.238134
vt 0.777976 -0.537932
vn -0.006642 0.419723 0.907628
vt 0.513145 0.749809
vn 0.460465 0.325149 0.825984
vt 0.202466 0.72669
vn 0.460465 0.325149 0.825984
vt 0.28805 -0.19779
vn -0.004874 -0.08427 0.996431
vt 0.511212 0.898724
vn 0.241225 -0.090345 0.966255
vt 0.307483 0.868169
vn 0.241225 -0.090345 0.966255
vt 0.578257 -0.115228
vn 0.241225 -0.090345 0.966255
vt 0.578257 -0.115228
vn 0.477272 -0.249247 0.842667
vt 0.730347 -0.150892
vn 0.477272 -0.249247 0.842667
vt 0.730347 -0.150892
vn 0.019317 -0.249489 0.968185
vt 0.779934 -0.049827
vn 0.019317 -0.249489 0.968185
vt 0.505961 0.997006
vn 0.019317 -0.249489 0.968185
vt 0.719756 -0.042807
vn 0.30888 -0.441131 0.842613
vt 0.859633 -0.184127
vn 0.30888 -0.441131 0.842613
vt 0.321073 0.924028
vn 0.30888 -0.441131 0.842613
vt 0.859633 -0.184127
vn 0.30888 -0.441131 0.842613
vt 0.321073 0.924028
vn 0.049885 -0.465772 0.883498
vt 0.508859 0.936761
vn 0.049885 -0.465772 0.883498
vt 0.508859 0.936761
vn 0.828515 -0.337303 0.446977
vt 0.747021 -0.350233
vn 0.57897 -0.688007 0.43754
vt 0.943113 -0.351384
vn 0.57897 -0.688007 0.43754
vt 0.211854 0.75532
vn 0.055487 -0.866349 0.496347
vt 0.508079 0.797667
vn 0.237534 0.444868 -0.863522
vt 0.70682 -0.807439
vn 0.153201 0.303374 -0.940475
vt 0.521486 -0.743136
vn 0.556961 -0.176347 -0.811601
vt 0.293538 0.123253
vn 0.556961 -0.176347 -0.811601
vt 0.091645 -0.635549
vn 0.00126 0.195208 -0.980761
vt 0.507005 0.135894
vn 0.072171 0.39776 -0.914646
vt 0.245673 -0.704906
vn 0.153048 -0.18193 -0.971328
vt 0.509305 0.024194
vn 0.260385 0.101522 -0.960153
vt 0.263384 0.028231
vn 0.260385 0.101522 -0.960153
vt 0.79308 -0.921558
vn -0.480515 0.664905 -0.571845
vt 0.151185 -0.655545
vn -0.612989 0.683138 0.396947
vt 0.042861 -0.315991
vn -0.612989 0.683138 0.396947
vt 0.880056 0.400362
vn -0.612989 0.683138 0.396947
vt 0.880056 0.400362
vn -0.435646 0.651611 -0.62098
vt 0.0378 -0.472162
vn -0.435646 0.651611 -0.62098
vt 0.887786 0.192188
vn -0.435646 0.651611 -0.62098
vt 0.887786 0.192188
vn -0.646373 0.398322 -0.650801
vt 0.215774 -0.527051
vn -0.646373 0.398322 -0.650801
vt 0.215774 -0.527051
vn -0.91871 0.314141 0.239349
vt 0.220248 -0.369016
vn -0.91871 0.314141 0.239349
vt 0.220248 -0.369016
vn -0.796352 -0.054954 -0.602332
vt 0.686338 -0.649175
vn -0.382964 0.080779 -0.920225
vt 0.758811 -0.747776
vn -0.349456 -0.432813 -0.830995
vt 0.963805 -0.754026
vn -0.349456 -0.432813 -0.830995
vt 0.862797 0.177081
vn -0.630812 -0.774339 0.049747
vt 0.967489 -0.471084
vn -0.630812 -0.774339 0.049747
vt 0.855202 0.552425
vn -0.970376 -0.000459 0.241601
vt 0.459168 -0.411069
vn -0.786272 0.197032 -0.585624
vt 0.465367 -0.569852
vn -0.820895 0.099377 0.562367
vt 0.384143 -0.242134
vn -0.820895 0.099377 0.562367
vt 0.384143 -0.242134
vn -0.864552 -0.406643 0.295281
vt 0.693432 -0.445878
vn -0.435658 0.592365 0.677722
vt 0.848128 0.574936
vn -0.435658 0.592365 0.677722
vt 0.145948 -0.209777
vn -0.449616 0.317685 0.834818
vt 0.822999 0.727462
vn -0.449616 0.317685 0.834818
vt 0.297279 -0.132319
vn -0.218145 -0.100572 0.97072
vt 0.714285 0.868675
vn -0.218145 -0.100572 0.97072
vt 0.534755 -0.084988
vn -0.218145 -0.100572 0.97072
vt 0.534755 -0.084988
vn -0.400783 -0.267301 0.876312
vt 0.666507 -0.125042
vn -0.400783 -0.267301 0.876312
vt 0.666507 -0.125042
vn -0.192269 -0.455915 0.869008
vt 0.853931 -0.161258
vn -0.192269 -0.455915 0.869008
vt 0.697235 0.924496
vn -0.192269 -0.455915 0.869008
vt 0.853931 -0.161258
vn -0.192269 -0.455915 0.869008
vt 0.697235 0.924496
vn -0.754104 -0.40654 0.515802
vt 0.67438 -0.289756
vn -0.448876 -0.730779 0.514268
vt 0.916579 -0.304331
vn -0.448876 -0.730779 0.514268
vt 0.805543 0.756059
vn -0.142202 0.258906 -0.955378
vt 0.457776 -0.775466
vn -0.234941 0.424483 -0.874424
vt 0.680985 -0.831358
vn -0.005796 0.204523 -0.978845
vt 0.149976 -0.681675
vn -0.143804 0.131939 -0.980771
vt 0.755999 0.028642
vn -0.143804 0.131939 -0.980771
vt 0.897234 -0.928806
vn 0.072269 0.163414 -0.983907
vt 0.039861 -0.671592
vn 0.072269 0.163414 -0.983907
vt 0.805476 0.118566
vn -0.271966 0.892802 0.359081
vt 0.697574 0.409829
vn -0.271966 0.892802 0.359081
vt 0.697574 0.409829
vn -0.603969 0.623804 -0.496075
vt 0.630517 0.214778
vn -0.005732 0.373194 -0.927736
vt 0.661223 0.131682
vn 0.252565 0.86824 -0.427049
vt 0.730958 0.207438
vn 0.252565 0.86824 -0.427049
vt 0.730958 0.207438
vn 0.242917 0.529726 -0.812639
vt 0.167102 -0.447709
f 1/1/1 2/3/3 3/5/5
f 3/5/5 4/7/7 1/1/1
f 5/8/8 1/2/2 6/10/10
f 6/10/10 7/11/11 5/8/8
f 8/12/12 9/13/13 10/15/15
f 10/15/15 11/17/17 8/12/12
f 12/18/18 10/16/16 9/14/14
f 9/14/14 13/19/19 12/18/18
f 14/20/20 15/21/21 3/6/6
f 3/6/6 2/3/3 14/20/20
f 2/4/4 16/22/22 14/20/20
f 6/10/10 1/2/2 17/24/24
f 17/24/24 18/26/26 6/10/10
f 19/27/27 9/13/13 8/12/12
f 15/21/21 14/20/20 19/27/27
f 19/27/27 8/12/12 15/21/21
f 20/28/28 21/29/29 5/8/8
f 5/8/8 7/11/11 20/28/28
f 21/29/29 20/28/28 22/31/31
f 22/31/31 23/32/32 21/29/29
f 16/22/22 5/9/9 21/30/30
f 24/35/35 23/33/33 25/37/37
f 26/40/40 24/35/35 25/37/37
f 27/44/44 26/41/41 25/38/38
f 23/32/32 22/31/31 25/38/38
f 5/9/9 16/23/23 2/3/3
f 2/3/3 1/1/1 5/9/9
f 28/46/46 16/22/22 24/36/36
f 14/20/20 16/22/22 28/46/46
f 28/46/46 19/27/27 14/20/20
f 29/47/47 28/46/46 24/36/36
f 24/36/36 26/42/42 29/47/47
f 28/46/46 29/47/47 9/13/13
f 9/13/13 19/27/27 28/46/46
f 30/49/49 29/48/48 26/43/43
f 26/43/43 27/45/45 30/49/49
f 29/48/48 30/49/49 13/19/19
f 13/19/19 9/14/14 29/48/48
f 16/22/22 21/30/30 23/34/34
f 23/34/34 24/36/36 16/22/22
f 8/12/12 31/50/50 32/51/51
f 32/51/51 15/21/21 8/12/12
f 17/24/24 33/52/52 34/54/54
f 34/54/54 18/26/26 17/24/24
f 15/21/21 32/51/51 35/55/55
f 35/55/55 3/5/5 15/21/21
f 12/18/18 36/56/56 37/57/57
f 37/57/57 10/16/16 12/18/18
f 10/15/15 37/58/58 11/17/17
f 11/17/17 37/58/58 31/50/50
f 31/50/50 8/12/12 11/17/17
f 3/5/5 35/55/55 38/59/59
f 38/59/59 4/7/7 3/5/5
f 39/60/60 40/63/63 41/66/66
f 41/66/66 42/68/68 39/60/60
f 43/70/70 44/71/71 45/72/72
f 45/72/72 46/74/74 43/70/70
f 12/18/18 13/19/19 46/75/75
f 46/75/75 45/73/73 12/18/18
f 47/76/76 42/68/68 41/67/67
f 41/67/67 48/77/77 47/76/76
f 47/76/76 49/78/78 42/69/69
f 50/80/80 43/70/70 46/74/74
f 48/77/77 43/70/70 50/80/80
f 50/80/80 47/76/76 48/77/77
f 20/28/28 7/11/11 51/81/81
f 51/81/81 52/83/83 20/28/28
f 52/83/83 53/85/85 22/31/31
f 22/31/31 20/28/28 52/83/83
f 49/78/78 52/84/84 51/82/82
f 54/88/88 25/39/39 53/86/86
f 55/90/90 25/39/39 54/88/88
f 27/44/44 25/38/38 55/91/91
f 53/85/85 25/38/38 22/31/31
f 42/68/68 49/79/79 51/82/82
f 51/82/82 39/60/60 42/68/68
f 54/89/89 49/78/78 56/94/94
f 56/94/94 49/78/78 47/76/76
f 47/76/76 50/80/80 56/94/94
f 57/95/95 55/92/92 54/89/89
f 54/89/89 56/94/94 57/95/95
f 56/94/94 50/80/80 46/74/74
f 46/74/74 57/95/95 56/94/94
f 30/49/49 27/45/45 55/93/93
f 55/93/93 57/96/96 30/49/49
f 57/96/96 46/75/75 13/19/19
f 13/19/19 30/49/49 57/96/96
f 49/78/78 54/89/89 53/87/87
f 53/87/87 52/84/84 49/78/78
f 43/70/70 48/77/77 58/97/97
f 58/97/97 59/98/98 43/70/70
f 48/77/77 41/66/66 60/99/99
f 60/99/99 58/97/97 48/77/77
f 12/18/18 45/73/73 61/100/100
f 61/100/100 36/56/56 12/18/18
f 45/72/72 44/71/71 61/101/101
f 44/71/71 43/70/70 59/98/98
f 59/98/98 61/101/101 44/71/71
f 41/66/66 40/63/63 62/102/102
f 62/102/102 60/99/99 41/66/66
f 63/104/104 39/61/61 51/81/81
f 63/104/104 51/81/81 7/11/11
f 7/11/11 6/10/10 63/104/104
f 64/106/106 63/105/105 6/10/10
f 6/10/10 18/26/26 64/106/106
f 64/106/106 18/26/26 34/54/54
f 34/54/54 65/107/107 64/106/106
f 65/107/107 63/104/104 64/106/106
f 65/107/107 62/103/103 40/64/64
f 40/64/64 66/108/108 65/107/107
f 66/108/108 63/104/104 65/107/107
f 63/105/105 66/109/109 40/65/65
f 40/65/65 39/62/62 63/105/105
f 1/1/1 67/110/110 33/53/53
f 33/53/53 17/25/25 1/1/1
f 1/1/1 4/7/7 38/59/59
f 38/59/59 67/110/110 1/1/1
