#
# Exported by OpenBRF -- marco tarini
#
s man_hair_b
newmtl hair_blonde
Ka 0.8 0.8 0.8
Kd 0.2 0.2 0.2
usemtl hair_blonde
v 0.070056 0.048647 0.118477
v 0.099896 0.022499 0.134268
v 0.082922 0.029154 0.087473
v 0.057744 0.051725 0.081543
v 0.068559 0.015356 0.083938
v 0.068559 0.002494 0.10542
v 0.068559 0.028614 0.073927
v -0.029126 0.027 0.274957
v -0.027571 -0.025558 0.260276
v 0.036554 -0.025558 0.273284
v 0.036401 0.025451 0.272136
v -0.050952 0.027 0.250707
v -0.050952 -0.027 0.250707
v -0.088137 0.020844 0.240882
v -0.088137 -0.03213 0.239856
v -0.118854 0.015715 0.200961
v -0.099285 -0.059506 0.193476
v 0.104657 0.011759 0.224324
v 0.096761 -0.027 0.22279
v 0.099386 -0.027 0.14503
v 0.101156 -0.008325 0.144129
v -0.029126 -0.102707 0.245955
v 0.038241 -0.107934 0.249742
v -0.109154 0.004429 0.136572
v -0.103983 0.03613 0.180605
v -0.096372 0.026738 0.124189
v -0.073005 0.050534 0.230218
v -0.050952 0.076284 0.231474
v 0.015568 -0.110179 0.067722
v -0.015789 -0.1098 0.066151
v -0.027509 -0.08803 0.04031
v 0.016457 -0.086491 0.040683
v 0.081829 -0.074428 0.095892
v 0.071074 -0.116712 0.137541
v 0.036423 -0.106744 0.089886
v 0.03472 -0.076866 0.049146
v 0.109143 -0.048218 0.143924
v 0.08359 -0.026534 0.120282
v 0.087926 -0.009199 0.12724
v 0.042215 -0.04372 0.037699
v 0.073093 -0.042282 0.088246
v -0.088137 -0.091635 0.226519
v -0.050952 -0.07522 0.236343
v -0.083432 -0.115657 0.155728
v -0.042226 0.065923 0.197388
v -0.073204 0.052545 0.149826
v -0.071194 0.049309 0.11826
v -0.052476 -0.097171 0.224952
v -0.0545 -0.14704 0.16458
v -0.05941 -0.095361 0.089202
v -0.042995 -0.058804 0.03877
v -0.109154 -0.067012 0.130416
v -0.034537 0.080387 0.204799
v -0.069697 0.003156 0.105202
v -0.082479 -0.008908 0.128364
v -0.058882 0.052387 0.081325
v -0.08406 0.029816 0.087255
v -0.069697 0.016018 0.08372
v -0.073547 -0.044983 0.092226
v -0.030233 0.083823 0.245109
v -0.020383 0.085129 0.215718
v 0.096005 0.041695 0.206682
v 0.104657 0.057831 0.201263
v 0.035047 0.081928 0.248018
v -0.025021 0.055411 0.247055
v 0.033087 0.083235 0.211428
v 0.033087 0.075248 0.198117
v -0.020383 0.077143 0.202407
v -0.034537 0.070405 0.195482
v -0.032204 -0.125922 0.113867
v 0.02751 -0.121369 0.10868
v 0.039451 -0.151544 0.152637
v -0.096304 -0.031291 0.133494
v -0.077946 -0.031291 0.106875
v 0.001297 -0.14694 0.158609
v -0.069697 0.029276 0.073709
v -0.059682 -0.028586 0.07914
v -0.062723 -0.042277 0.063814
v -0.014436 -0.064724 0.015521
v -0.008793 -0.075375 0.016083
v 0.005201 -0.074814 0.022983
v 0.078296 0.083305 0.176961
v 0.064118 0.083235 0.168556
v 0.089768 0.072456 0.178648
v 0.07474 0.04855 0.143354
v 0.066891 0.063714 0.152504
v 0.034067 0.098046 0.227661
v 0.064867 0.018605 0.242568
v 0.060996 -0.026279 0.242375
v 0.080784 -0.09594 0.210285
v 0.096466 -0.083947 0.204757
v 0.099914 -0.066082 0.163742
v 0.053628 -0.027244 0.087801
vn 0.693413 0.706819 -0.139947
vt 0.254703 0.555059
vn 0.937556 0.038692 -0.345677
vt 0.354999 0.55975
vn 0.825594 0.025264 -0.563698
vt 0.26015 0.433586
vn 0.667862 0.61845 -0.414102
vt 0.186054 0.452034
vn 0.681726 -0.577302 -0.449414
vt 0.293843 0.401389
vn 0.745648 -0.405128 -0.529037
vt 0.365405 0.443765
vn 0.685955 0.00668 -0.727613
vt 0.239741 0.393155
vn -0.442347 0.251055 0.860988
vt 0.570143 0.977909
vn -0.378848 -0.236843 0.894639
vt 0.696513 0.851719
vn 0.321023 -0.170002 0.931689
vt 0.717594 0.889723
vn 0.245751 0.252048 0.935991
vt 0.569997 0.967211
vn -0.460537 0.238808 0.854913
vt 0.530842 0.90706
vn -0.460537 0.238808 0.854913
vt 1.23397 0.922685
vn -0.408501 -0.176715 0.895488
vt 0.685124 0.821477
vn -0.408501 -0.176715 0.895488
vt 1.38825 0.837102
vn -0.554656 0.234655 0.798307
vt 1.23563 0.884227
vn -0.543447 -0.202163 0.814737
vt 1.38532 0.797273
vn -0.956693 0.205315 0.206359
vt 1.18559 0.759468
vn -0.946008 -0.180205 0.269434
vt 1.38837 0.618386
vn 0.874795 0.073201 0.478931
vt 0.531631 0.805829
vn 0.778939 -0.189221 0.597871
vt 0.639881 0.739918
vn 0.990597 0.095798 -0.097673
vt 0.513863 0.512741
vn 0.930859 -0.123256 -0.343961
vt 0.459049 0.539708
vn -0.421666 -0.49232 0.761458
vt 0.893724 0.687612
vn -0.421666 -0.49232 0.761458
vt -0.491583 0.963599
vn 0.286452 -0.632396 0.719737
vt 0.914796 0.690388
vn 0.286452 -0.632396 0.719737
vt -0.264009 0.978131
vn -0.79669 0.026925 -0.603789
vt 1.11349 0.553468
vn -0.79669 0.026925 -0.603789
vt 0.410361 0.537843
vn -0.708757 0.705215 0.018335
vt 1.09427 0.732351
vn -0.897581 0.128208 -0.421794
vt 1.02968 0.55265
vn -0.633786 0.709912 0.30715
vt 1.13353 0.900125
vn -0.554454 0.587985 0.588943
vt 1.06199 0.944604
vn -0.554454 0.587985 0.588943
vt 0.358867 0.928979
vn 0.29416 -0.820288 -0.490508
vt -0.340602 0.279517
vn -0.258889 -0.811596 -0.523726
vt -0.446528 0.273488
vn -0.294472 -0.708642 -0.641181
vt -0.486122 0.174308
vn 0.316434 -0.729383 -0.606522
vt -0.337598 0.17574
vn 0.783844 -0.35839 -0.507095
vt -0.116765 0.387636
vn 0.783844 -0.35839 -0.507095
vt 0.569735 0.294017
vn 0.733496 -0.630412 -0.254096
vt -0.153095 0.54749
vn 0.733496 -0.630412 -0.254096
vt 0.75804 0.34868
vn 0.506024 -0.722936 -0.470429
vt -0.27015 0.364588
vn 0.593993 -0.508062 -0.623736
vt -0.275902 0.208221
vn 0.593993 -0.508062 -0.623736
vt 0.500942 0.153586
vn 0.94976 0.188016 -0.25021
vt 0.572692 0.475886
vn 0.710238 0.500924 -0.494608
vt 0.472426 0.44118
vn 0.792157 0.034096 -0.609365
vt 0.434172 0.488981
vn 0.728581 -0.008801 -0.684903
vt 0.38769 0.172676
vn 0.728581 -0.008801 -0.684903
vt -0.250583 0.164286
vn 0.753313 0.344836 -0.560006
vt 0.4655 0.322628
vn -0.314317 -0.599044 0.736445
vt 1.53372 0.664
vn -0.314317 -0.599044 0.736445
vt -0.690928 0.888999
vn -0.339155 -0.321994 0.883908
vt 1.50274 0.718718
vn -0.339155 -0.321994 0.883908
vt 0.799614 0.703093
vn -0.705912 -0.695023 -0.136499
vt 1.48763 0.419114
vn -0.705912 -0.695023 -0.136499
vt -0.675034 0.617297
vn -0.592246 0.787727 -0.169502
vt 1.03635 0.828601
vn -0.532723 0.840347 -0.100117
vt 0.997495 0.668448
vn -0.647966 0.737984 -0.188467
vt 0.955584 0.571097
vn -0.400195 -0.636209 0.659607
vt -0.570461 0.882984
vn -0.400195 -0.636209 0.659607
vt 1.54699 0.650648
vn -0.400195 -0.636209 0.659607
vt 0.843869 0.635023
vn -0.334099 -0.939241 0.078768
vt -0.5773 0.651272
vn -0.687811 -0.46444 -0.557863
vt -0.593886 0.36196
vn -0.687811 -0.46444 -0.557863
vt 1.32183 0.256921
vn -0.691074 -0.140317 -0.709033
vt -0.538433 0.168398
vn -0.691074 -0.140317 -0.709033
vt 1.13565 0.167523
vn -0.95955 0.036504 -0.279163
vt 1.30762 0.422259
vn -0.329401 0.883855 -0.332108
vt 1.00704 0.873178
vn -0.329401 0.883855 -0.332108
vt 0.303912 0.857553
vn -0.726843 -0.343137 -0.594942
vt 1.06629 0.459803
vn -0.598294 0.087781 -0.796454
vt 1.13829 0.508351
vn -0.598294 0.087781 -0.796454
vt 0.435165 0.492726
vn -0.658444 0.623897 -0.420956
vt 0.886934 0.468072
vn -0.830501 0.023057 -0.55654
vt 0.961031 0.449624
vn -0.697343 -0.57595 -0.426607
vt 0.994723 0.417427
vn -0.824914 0.14795 -0.545553
vt 1.18279 0.345599
vn -0.391453 0.684421 0.615087
vt 0.359424 0.980762
vn -0.096846 0.921064 -0.377175
vt 0.308059 0.896968
vn 0.824522 0.087943 0.558954
vt 0.417512 0.80173
vn 0.832646 0.470962 0.29137
vt 0.362628 0.811473
vn 0.277779 0.486847 0.828142
vt 0.369552 0.986259
vn -0.283049 0.371704 0.884149
vt 0.443752 0.941421
vn -0.119883 0.918357 -0.377159
vt 0.30652 0.881431
vn -0.432963 0.674725 -0.597736
vt 0.307767 0.829888
vn 0.049126 0.856457 -0.513875
vt 0.309306 0.845424
vn 0.108968 0.852387 -0.511432
vt 0.317334 0.814511
vn -0.219036 -0.872962 -0.435844
vt -0.501981 0.456628
vn 0.23938 -0.882699 -0.404401
vt -0.300262 0.436721
vn 0.381394 -0.92435 -0.010781
vt -0.259922 0.60543
vn -0.862765 0.171498 -0.475631
vt 1.21055 0.487863
vn -0.862765 0.171498 -0.475631
vt 0.507429 0.472238
vn -0.755151 0.431165 -0.493805
vt 1.16742 0.410097
vn -0.041632 -0.999129 -0.002826
vt -0.388811 0.628351
vn -0.685955 0.00668 -0.727613
vt 0.940621 0.409193
vn -0.455905 0.706788 -0.540927
vt 1.11474 0.333357
vn -0.703253 0.44422 -0.555071
vt 1.12902 0.266883
vn -0.508293 0.239144 -0.827314
vt -0.441958 0.079166
vn -0.508293 0.239144 -0.827314
vt 1.11489 0.09022
vn -0.332219 -0.706017 -0.625436
vt -0.422894 0.08132
vn 0.428286 -0.626871 -0.650849
vt -0.375623 0.107806
vn 0.457751 0.826211 -0.328388
vt 0.250461 0.780848
vn -0.155428 0.836291 -0.525794
vt 0.237043 0.756182
vn 0.460315 0.845248 -0.271413
vt 0.284193 0.76858
vn 0.54913 0.647538 -0.528347
vt 0.295297 0.627582
vn 0.015212 0.636581 -0.77106
vt 0.266799 0.678349
vn 0.151667 0.974098 -0.167721
vt 0.29051 0.952331
vn 0.59354 0.177259 0.785041
vt 0.541638 0.869979
vn 0.620141 -0.136271 0.772564
vt 0.669562 0.798279
vn 0.617352 -0.53215 0.57939
vt 0.816584 0.594124
vn 0.617352 -0.53215 0.57939
vt -0.120295 0.826692
vn 0.894783 -0.37903 0.236008
vt 0.773359 0.596984
vn 0.894783 -0.37903 0.236008
vt -0.067318 0.805476
vn 0.984557 -0.146621 0.095659
vt 0.655848 0.505468
vn 0.555179 0.705563 -0.440406
vt 0.421814 0.345161
f 1/1/1 2/2/2 3/3/3
f 3/3/3 4/4/4 1/1/1
f 2/2/2 5/5/5 3/3/3
f 2/2/2 6/6/6 5/5/5
f 5/5/5 7/7/7 3/3/3
f 3/3/3 7/7/7 4/4/4
f 8/8/8 9/9/9 10/10/10
f 10/10/10 11/11/11 8/8/8
f 9/9/9 8/8/8 12/12/12
f 12/12/12 13/14/14 9/9/9
f 13/15/15 12/13/13 14/16/16
f 14/16/16 15/17/17 13/15/15
f 15/17/17 14/16/16 16/18/18
f 16/18/18 17/19/19 15/17/17
f 18/20/20 19/21/21 20/22/22
f 20/22/22 21/23/23 18/20/20
f 10/10/10 9/9/9 22/24/24
f 22/24/24 23/26/26 10/10/10
f 24/28/28 16/18/18 25/30/30
f 25/30/30 26/31/31 24/28/28
f 16/18/18 14/16/16 27/32/32
f 27/32/32 25/30/30 16/18/18
f 14/16/16 12/13/13 28/33/33
f 28/33/33 27/32/32 14/16/16
f 29/35/35 30/36/36 31/37/37
f 31/37/37 32/38/38 29/35/35
f 33/39/39 34/41/41 35/43/43
f 35/43/43 36/44/44 33/39/39
f 29/35/35 32/38/38 36/44/44
f 36/44/44 35/43/43 29/35/35
f 20/22/22 37/46/46 38/47/47
f 38/47/47 39/48/48 20/22/22
f 33/40/40 36/45/45 40/49/49
f 40/49/49 41/51/51 33/40/40
f 13/15/15 15/17/17 42/52/52
f 42/52/52 43/54/54 13/15/15
f 9/9/9 13/14/14 43/55/55
f 43/55/55 22/24/24 9/9/9
f 15/17/17 17/19/19 44/56/56
f 44/56/56 42/52/52 15/17/17
f 25/30/30 27/32/32 45/58/58
f 45/58/58 46/59/59 25/30/30
f 26/31/31 25/30/30 46/59/59
f 46/59/59 47/60/60 26/31/31
f 48/61/61 49/64/64 22/25/25
f 48/61/61 42/53/53 44/57/57
f 44/57/57 49/64/64 48/61/61
f 48/62/62 43/54/54 42/52/52
f 48/63/63 22/24/24 43/55/55
f 30/36/36 50/65/65 51/67/67
f 51/67/67 31/37/37 30/36/36
f 17/19/19 52/69/69 44/56/56
f 27/32/32 28/33/33 53/70/70
f 53/70/70 45/58/58 27/32/32
f 24/28/28 26/31/31 54/72/72
f 54/72/72 55/73/73 24/28/28
f 47/60/60 56/75/75 57/76/76
f 57/76/76 26/31/31 47/60/60
f 26/31/31 57/76/76 58/77/77
f 26/31/31 58/77/77 54/72/72
f 52/69/69 59/78/78 50/66/66
f 50/66/66 44/56/56 52/69/69
f 28/34/34 60/79/79 61/80/80
f 61/80/80 53/71/71 28/34/34
f 62/81/81 63/82/82 64/83/83
f 62/81/81 2/2/2 63/82/82
f 18/20/20 21/23/23 2/2/2
f 2/2/2 62/81/81 18/20/20
f 65/84/84 8/8/8 11/11/11
f 65/84/84 60/79/79 28/34/34
f 65/84/84 11/11/11 64/83/83
f 65/84/84 64/83/83 60/79/79
f 65/84/84 28/34/34 12/12/12
f 65/84/84 12/12/12 8/8/8
f 61/80/80 66/85/85 67/86/86
f 67/86/86 68/87/87 61/80/80
f 53/71/71 61/80/80 68/87/87
f 68/87/87 69/88/88 53/71/71
f 70/89/89 49/64/64 44/57/57
f 70/89/89 44/57/57 50/65/65
f 50/65/65 30/36/36 70/89/89
f 71/90/90 29/35/35 35/43/43
f 71/90/90 35/43/43 34/41/41
f 34/41/41 72/91/91 71/90/90
f 70/89/89 30/36/36 29/35/35
f 29/35/35 71/90/90 70/89/89
f 73/92/92 52/69/69 17/19/19
f 73/92/92 17/19/19 16/18/18
f 16/18/18 24/28/28 73/92/92
f 52/69/69 73/92/92 74/94/94
f 74/94/94 59/78/78 52/69/69
f 75/95/95 49/64/64 70/89/89
f 75/95/95 70/89/89 71/90/90
f 71/90/90 72/91/91 75/95/95
f 75/95/95 72/91/91 23/27/27
f 75/95/95 23/27/27 22/25/25
f 22/25/25 49/64/64 75/95/95
f 57/76/76 76/96/96 58/77/77
f 56/75/75 76/96/96 57/76/76
f 73/92/92 55/73/73 74/94/94
f 73/93/93 24/29/29 55/74/74
f 74/94/94 77/97/97 78/98/98
f 78/98/98 59/78/78 74/94/94
f 50/66/66 59/78/78 78/98/98
f 78/98/98 51/68/68 50/66/66
f 31/37/37 51/67/67 79/99/99
f 79/99/99 80/101/101 31/37/37
f 32/38/38 31/37/37 80/101/101
f 80/101/101 81/102/102 32/38/38
f 81/102/102 40/50/50 36/44/44
f 81/102/102 36/44/44 32/38/38
f 82/103/103 83/104/104 66/85/85
f 84/105/105 82/103/103 66/85/85
f 2/2/2 85/106/106 84/105/105
f 84/105/105 63/82/82 2/2/2
f 20/22/22 39/48/48 21/23/23
f 1/1/1 85/106/106 2/2/2
f 6/6/6 2/2/2 21/23/23
f 21/23/23 39/48/48 6/6/6
f 66/85/85 83/104/104 86/107/107
f 86/107/107 67/86/86 66/85/85
f 87/108/108 64/83/83 63/82/82
f 87/108/108 66/85/85 61/80/80
f 87/108/108 61/80/80 60/79/79
f 60/79/79 64/83/83 87/108/108
f 87/108/108 63/82/82 84/105/105
f 87/108/108 84/105/105 66/85/85
f 82/103/103 86/107/107 83/104/104
f 85/106/106 86/107/107 82/103/103
f 85/106/106 82/103/103 84/105/105
f 88/109/109 18/20/20 62/81/81
f 88/109/109 62/81/81 64/83/83
f 64/83/83 11/11/11 88/109/109
f 89/110/110 10/10/10 23/26/26
f 89/110/110 19/21/21 18/20/20
f 18/20/20 88/109/109 89/110/110
f 88/109/109 11/11/11 10/10/10
f 10/10/10 89/110/110 88/109/109
f 90/111/111 91/113/113 19/21/21
f 90/111/111 19/21/21 89/110/110
f 89/110/110 23/26/26 90/111/111
f 90/112/112 23/27/27 72/91/91
f 90/112/112 72/91/91 34/41/41
f 34/41/41 91/114/114 90/112/112
f 92/115/115 91/113/113 34/42/42
f 92/115/115 34/42/42 33/40/40
f 33/40/40 37/46/46 92/115/115
f 92/115/115 37/46/46 20/22/22
f 92/115/115 20/22/22 19/21/21
f 19/21/21 91/113/113 92/115/115
f 37/46/46 41/51/51 38/47/47
f 37/46/46 33/40/40 41/51/51
f 51/68/68 78/98/98 77/97/97
f 77/97/97 79/100/100 51/68/68
f 93/116/116 41/51/51 40/49/49
f 93/116/116 38/47/47 41/51/51
