#
# Exported by OpenBRF -- marco tarini
#
s man_hair_g
newmtl hair_blonde
Ka 0.8 0.8 0.8
Kd 0.2 0.2 0.2
usemtl hair_blonde
v 0.009657 -0.058847 0.250746  0.639216 0.52549 0.486275  1
v 0.009657 -0.058847 0.250746  1 1 1  1
v 0.008973 -0.069132 0.27028  0.639216 0.52549 0.486275  1
v 0.008973 -0.069132 0.27028  1 1 1  1
v 0.010233 -0.080286 0.265883  0.639216 0.52549 0.486275  1
v 0.010233 -0.080286 0.265883  1 1 1  1
v 0.010505 -0.064132 0.247555  0.639216 0.52549 0.486275  1
v 0.010505 -0.064132 0.247555  1 1 1  1
v 0.005927 -0.052609 0.252997  0.639216 0.52549 0.486275  1
v 0.005927 -0.052609 0.252997  1 1 1  1
v -0.000458 -0.051323 0.254459  0.639216 0.52549 0.486275  1
v -0.000458 -0.051323 0.254459  1 1 1  1
v 0.000272 -0.066475 0.27481  0.639216 0.52549 0.486275  1
v 0.000272 -0.066475 0.27481  1 1 1  1
v 0.006467 -0.069243 0.245861  0.639216 0.52549 0.486275  1
v 0.006467 -0.069243 0.245861  1 1 1  1
v -0.000458 -0.070931 0.246189  0 0 0  1
v -0.000458 -0.070931 0.246189  0.639216 0.52549 0.486275  1
v -0.000458 -0.070931 0.246189  1 1 1  1
v 0.000297 -0.082216 0.265695  0 0 0  1
v 0.000297 -0.082216 0.265695  0.639216 0.52549 0.486275  1
v 0.000297 -0.082216 0.265695  1 1 1  1
v 0.000347 -0.067695 0.291911  1 1 1  1
v 0.027436 -0.084615 0.282564  1 1 1  1
v 0.0306 -0.09317 0.268806  1 1 1  1
v 0.000408 -0.090573 0.265413  1 1 1  1
v 0.027058 -0.107625 0.268811  1 1 1  1
v 0.000367 -0.104545 0.259178  1 1 1  1
v 0.000333 -0.086317 0.30113  1 1 1  1
v 0.00042 -0.118774 0.29238  1 1 1  1
v 0.024545 -0.11316 0.281265  1 1 1  1
v 0.025414 -0.133982 0.25916  1 1 1  1
v 0.024978 -0.118573 0.25141  1 1 1  1
v 0.000444 -0.142207 0.263665  1 1 1  1
v 0.00032 -0.111103 0.249329  1 1 1  1
v 0.018953 -0.126711 0.194494  1 1 1  1
v 0.010469 -0.117155 0.137564  1 1 1  1
v 0.010312 -0.109798 0.142986  1 1 1  1
v 0.017861 -0.116437 0.195826  1 1 1  1
v 0.000339 -0.136178 0.191863  1 1 1  1
v 0.000334 -0.12413 0.14857  1 1 1  1
v 0.000307 -0.119085 0.10872  1 1 1  1
v 0.004315 -0.113901 0.10762  1 1 1  1
v -0.003821 -0.109512 0.082451  1 1 1  1
v 0.035662 -0.060152 0.224161  1 1 1  1
v 0.031149 -0.041066 0.232613  1 1 1  1
v 0.022117 -0.079341 0.216398  1 1 1  1
v 0.020303 -0.02306 0.240992  1 1 1  1
v -0.000459 -0.014807 0.24456  1 1 1  1
v -0.000521 -0.085528 0.216128  1 1 1  1
v -0.010351 -0.058729 0.251056  0.639216 0.52549 0.486275  1
v -0.010351 -0.058729 0.251056  1 1 1  1
v -0.011422 -0.064132 0.247555  0 0 0  1
v -0.011422 -0.064132 0.247555  0.639216 0.52549 0.486275  1
v -0.011422 -0.064132 0.247555  1 1 1  1
v -0.009592 -0.079884 0.265675  0 0 0  1
v -0.009592 -0.079884 0.265675  0.639216 0.52549 0.486275  1
v -0.009592 -0.079884 0.265675  1 1 1  1
v -0.008414 -0.068965 0.27001  0.639216 0.52549 0.486275  1
v -0.008414 -0.068965 0.27001  1 1 1  1
v -0.006844 -0.052609 0.252997  0.639216 0.52549 0.486275  1
v -0.006844 -0.052609 0.252997  1 1 1  1
v -0.007385 -0.069243 0.245861  0 0 0  1
v -0.007385 -0.069243 0.245861  1 1 1  1
v -0.02838 -0.093085 0.266112  1 1 1  1
v -0.025274 -0.084511 0.283231  1 1 1  1
v -0.02493 -0.108049 0.268106  1 1 1  1
v -0.022323 -0.114988 0.282355  1 1 1  1
v -0.024256 -0.118591 0.251373  1 1 1  1
v -0.023226 -0.134636 0.258225  1 1 1  1
v -0.018146 -0.126898 0.193847  1 1 1  1
v -0.017106 -0.119337 0.195947  1 1 1  1
v -0.010027 -0.111169 0.141588  1 1 1  1
v -0.009784 -0.117127 0.137952  1 1 1  1
v -0.006026 -0.114324 0.111352  1 1 1  1
v -0.004513 -0.11079 0.112037  1 1 1  1
v -0.03658 -0.060152 0.224161  1 1 1  1
v -0.023034 -0.079341 0.216398  1 1 1  1
v -0.02122 -0.02306 0.240992  1 1 1  1
v -0.031033 -0.027552 0.235382  1 1 1  1
v -0.032066 -0.041066 0.232613  1 1 1  1
v -0.037967 -0.047848 0.22758  1 1 1  1
v 0.029089 -0.02926 0.236853  1 1 1  1
v 0.000268 -0.106216 0.145694  1 1 1  1
v 0.000782 -0.109919 0.194096  1 1 1  1
v -0.022371 -0.137773 0.226656  1 1 1  1
v 0.000399 -0.146663 0.228201  1 1 1  1
v 0.02317 -0.137342 0.227121  1 1 1  1
v 0.021675 -0.123994 0.225058  1 1 1  1
v 0.000565 -0.116983 0.223451  1 1 1  1
v -0.02092 -0.125438 0.225242  1 1 1  1
v -0.001776 -0.107526 0.11137  1 1 1  1
vn 0.82997 0.023748 0.557302
vt 0.697564 0.398475
vn 0.82997 0.023748 0.557302
vt 0.603088 0.728044
vn 0.706335 0.684411 0.180756
vt 0.694713 0.414584
vn 0.706335 0.684411 0.180756
vt 0.823495 0.797363
vn 0.787922 -0.182439 -0.588129
vt 0.70622 0.424839
vn 0.787922 -0.182439 -0.588129
vt 0.830532 0.748819
vn 0.886051 -0.388153 0.253477
vt 0.704177 0.400354
vn 0.886051 -0.388153 0.253477
vt 0.746701 0.716509
vn 0.539489 0.336931 0.77164
vt 0.693549 0.394255
vn 0.539489 0.336931 0.77164
vt 0.487157 0.598148
vn 0.539489 0.336931 0.77164
vt 0.479328 0.754737
vn -0.000147 0.520927 0.853601
vt 0.697268 0.394457
vn -0.000147 0.520927 0.853601
vt 0.683104 0.614225
vn 0.003342 0.919262 0.393631
vt 0.696654 0.415471
vn 0.003342 0.919262 0.393631
vt 0.758915 0.822824
vn 0.530477 -0.847633 0.010626
vt 0.714086 0.403765
vn 0.530477 -0.847633 0.010626
vt 0.872957 0.726324
vn 0.530477 -0.847633 0.010626
vt 0.470567 0.653252
vn -0.005588 -0.999197 -0.039684
vt 0.721969 0.405825
vn -0.005588 -0.999197 -0.039684
vt 0.683104 0.689948
vn -0.005588 -0.999197 -0.039684
vt 0.337619 0.146931
vn 0.028848 -0.499995 -0.865548
vt 0.717315 0.426869
vn 0.028848 -0.499995 -0.865548
vt 0.758915 0.742008
vn 0.028848 -0.499995 -0.865548
vt 0.307745 0.282025
vn -0.002503 0.902016 0.431695
vt 0.758915 0.876831
vn 0.815425 0.382701 0.434306
vt 0.882825 0.912022
vn 0.717939 0.138871 -0.682113
vt 0.896779 0.793779
vn 0.100385 0.078181 -0.991872
vt 0.758916 0.775195
vn 0.87138 0.214723 -0.441124
vt 0.896779 0.793711
vn 0.074832 0.547852 -0.833222
vt 0.758916 0.767896
vn -0.039801 0.139437 0.989431
vt 0.758916 0.973245
vn -0.04677 -0.520456 0.852607
vt 0.758916 0.997432
vn 0.823296 -0.305564 0.478345
vt 0.882825 0.930372
vn 0.834986 -0.511445 0.203032
vt 0.926474 0.763912
vn 0.80079 0.541838 -0.255238
vt 0.896779 0.721518
vn -0.006847 -0.922443 0.386072
vt 0.758916 0.798045
vn -0.003116 0.916433 -0.400176
vt 0.758916 0.699355
vn 0.854208 -0.457579 -0.24688
vt 0.89592 0.540581
vn 0.955057 -0.236978 -0.178065
vt 0.867799 0.303073
vn 0.656746 0.752397 -0.050828
vt 0.825485 0.355451
vn 0.704753 0.708773 0.031051
vt 0.86186 0.611989
vn -0.027526 -0.95658 -0.290166
vt 0.758916 0.497397
vn 0.067521 -0.975244 -0.21057
vt 0.758915 0.269639
vn 0.135556 -0.958967 -0.24901
vt 0.758915 0.178343
vn 0.978267 0.063432 -0.197408
vt 0.845975 0.197904
vn 0.978267 0.063432 -0.197408
vt 0.825485 0.152084
vn -0.790141 0.329204 -0.517012
vt 0.758915 0.063341
vn 0.637139 -0.472246 0.609128
vt 0.748029 0.610433
vn 0.689972 -0.215365 0.691055
vt 0.572179 0.637004
vn 0.41493 -0.770066 0.484594
vt 0.928647 0.627151
vn 0.41493 -0.770066 0.484594
vt 0.430086 0.560446
vn 0.379425 0.183788 0.906785
vt 0.450416 0.466639
vn 0.379425 0.183788 0.906785
vt 0.402045 0.649518
vn 2.5e-05 0.259355 0.965782
vt 0.683123 0.453245
vn -0.000963 -0.899651 0.43661
vt 0.683123 0.587203
vn -0.787426 0.025353 0.615888
vt 0.716217 0.398068
vn -0.787426 0.025353 0.615888
vt 0.603088 0.728044
vn -0.847262 -0.36624 0.384728
vt 0.725008 0.399622
vn -0.847262 -0.36624 0.384728
vt 0.357128 0.107115
vn -0.847262 -0.36624 0.384728
vt 0.746701 0.716509
vn -0.640903 -0.244605 -0.727607
vt 0.724944 0.42343
vn -0.640903 -0.244605 -0.727607
vt 0.356715 0.259951
vn -0.640903 -0.244605 -0.727607
vt 0.687299 0.74882
vn -0.704344 0.701815 0.10656
vt 0.711359 0.413503
vn -0.704344 0.701815 0.10656
vt 0.694335 0.797363
vn -0.542509 0.324699 0.774761
vt 0.705682 0.393829
vn -0.542509 0.324699 0.774761
vt 0.879092 0.598148
vn -0.542509 0.324699 0.774761
vt 0.479328 0.754737
vn -0.534648 -0.84452 0.03061
vt 0.371497 0.13074
vn -0.534648 -0.84452 0.03061
vt 0.872957 0.726324
vn -0.534648 -0.84452 0.03061
vt 0.895681 0.653252
vn -0.441499 0.21954 -0.869989
vt 0.621052 0.793779
vn -0.85874 0.381631 0.34194
vt 0.635006 0.912023
vn -0.857266 0.310014 -0.411079
vt 0.621052 0.793711
vn -0.806851 -0.327382 0.491745
vt 0.635006 0.930372
vn -0.846495 0.470065 -0.249972
vt 0.621052 0.721518
vn -0.790906 -0.579527 0.196512
vt 0.591357 0.763912
vn -0.881875 -0.428305 -0.197106
vt 0.621911 0.540581
vn -0.808779 0.588084 0.005825
vt 0.655971 0.611989
vn -0.873769 0.476933 -0.0952021
vt 0.692345 0.355452
vn -0.86693 -0.456628 -0.199807
vt 0.650032 0.303073
vn -0.919415 -0.35968 -0.15908
vt 0.671856 0.197905
vn -0.890414 0.447881 -0.08103
vt 0.692345 0.152084
vn -0.644196 -0.454029 0.615524
vt 0.748029 0.610433
vn -0.419574 -0.767366 0.484879
vt 0.928647 0.627152
vn -0.419574 -0.767366 0.484879
vt 0.936162 0.560446
vn -0.399265 0.171633 0.900627
vt 0.915833 0.46664
vn -0.399265 0.171633 0.900627
vt 0.402045 0.649518
vn -0.592574 0.015524 0.805366
vt 0.487112 0.643261
vn -0.669069 -0.048173 0.741638
vt 0.572179 0.637004
vn -0.676742 -0.190059 0.711265
vt 0.660104 0.623719
vn 0.586763 0.004411 0.809747
vt 0.487112 0.643261
vn -0.047561 0.99886 0.004002
vt 0.758916 0.505626
vn -0.047561 0.99886 0.004002
vt 0.758915 0.373215
vn -0.062983 0.989006 0.133789
vt 0.758916 0.638037
vn -0.839659 -0.533423 -0.102137
vt 0.606634 0.652246
vn 0.004848 -0.994574 -0.103922
vt 0.758916 0.647721
vn 0.854385 -0.506461 -0.116287
vt 0.911197 0.652246
vn 0.799537 0.598294 -0.052771
vt 0.879319 0.666753
vn -0.034271 0.999084 -0.025618
vt 0.758916 0.668696
vn -0.823132 0.562292 -0.079255
vt 0.638511 0.666754
vn 0.048054 0.994336 -0.094803
vt 0.758915 0.218278
f 1/1/1 3/3/3 5/5/5
f 5/5/5 7/7/7 1/1/1
f 9/9/9 3/3/3 1/1/1
f 3/3/3 9/9/9 11/12/12
f 11/12/12 13/14/14 3/3/3
f 15/16/16 7/7/7 5/5/5
f 18/19/19 15/16/16 5/5/5
f 5/5/5 21/22/22 18/19/19
f 14/15/15 23/25/25 4/4/4
f 4/4/4 24/26/26 25/27/27
f 25/27/27 6/6/6 4/4/4
f 6/6/6 25/27/27 26/28/28
f 26/28/28 22/23/23 6/6/6
f 25/27/27 27/29/29 28/30/30
f 28/30/30 26/28/28 25/27/27
f 29/31/31 30/32/32 31/33/33
f 31/33/33 24/26/26 29/31/31
f 24/26/26 31/33/33 27/29/29
f 27/29/29 25/27/27 24/26/26
f 31/33/33 32/34/34 33/35/35
f 33/35/35 27/29/29 31/33/33
f 30/32/32 34/36/36 32/34/34
f 32/34/34 31/33/33 30/32/32
f 27/29/29 33/35/35 35/37/37
f 35/37/37 28/30/30 27/29/29
f 36/38/38 37/39/39 38/40/40
f 38/40/40 39/41/41 36/38/38
f 40/42/42 41/43/43 37/39/39
f 37/39/39 36/38/38 40/42/42
f 41/43/43 42/44/44 43/45/45
f 43/45/45 37/39/39 41/43/43
f 43/45/45 42/44/44 44/47/47
f 2/2/2 8/8/8 45/48/48
f 45/48/48 46/49/49 2/2/2
f 8/8/8 16/17/17 47/50/50
f 47/50/50 45/48/48 8/8/8
f 12/13/13 10/10/10 48/52/52
f 48/52/52 49/54/54 12/13/13
f 16/18/18 19/20/20 50/55/55
f 50/55/55 47/51/51 16/18/18
f 51/56/56 54/58/58 57/61/61
f 57/61/61 59/64/64 51/56/56
f 61/66/66 51/56/56 59/64/64
f 11/12/12 61/66/66 59/64/64
f 59/64/64 13/14/14 11/12/12
f 63/69/69 56/62/62 53/59/59
f 17/21/21 20/24/24 56/62/62
f 56/62/62 63/69/69 17/21/21
f 14/15/15 60/65/65 23/25/25
f 60/65/65 58/63/63 65/72/72
f 65/72/72 66/73/73 60/65/65
f 58/63/63 22/23/23 26/28/28
f 26/28/28 65/72/72 58/63/63
f 65/72/72 26/28/28 28/30/30
f 28/30/30 67/74/74 65/72/72
f 29/31/31 66/73/73 68/75/75
f 68/75/75 30/32/32 29/31/31
f 66/73/73 65/72/72 67/74/74
f 67/74/74 68/75/75 66/73/73
f 68/75/75 67/74/74 69/76/76
f 69/76/76 70/77/77 68/75/75
f 30/32/32 68/75/75 70/77/77
f 70/77/77 34/36/36 30/32/32
f 67/74/74 28/30/30 35/37/37
f 35/37/37 69/76/76 67/74/74
f 71/78/78 72/79/79 73/80/80
f 73/80/80 74/81/81 71/78/78
f 40/42/42 71/78/78 74/81/81
f 74/81/81 41/43/43 40/42/42
f 41/43/43 74/81/81 75/82/82
f 75/82/82 42/44/44 41/43/43
f 74/81/81 73/80/80 76/83/83
f 76/83/83 75/82/82 74/81/81
f 55/60/60 77/84/84 78/85/85
f 78/85/85 64/70/70 55/60/60
f 79/87/87 62/67/67 12/13/13
f 12/13/13 49/54/54 79/87/87
f 64/71/71 78/86/86 50/55/55
f 50/55/55 19/20/20 64/71/71
f 80/89/89 81/90/90 52/57/57
f 82/91/91 77/84/84 55/60/60
f 48/53/53 10/11/11 83/92/92
f 83/92/92 10/11/11 2/2/2
f 83/92/92 2/2/2 46/49/49
f 80/89/89 52/57/57 62/68/68
f 80/89/89 62/68/68 79/88/88
f 82/91/91 55/60/60 52/57/57
f 82/91/91 52/57/57 81/90/90
f 84/93/93 73/80/80 72/79/79
f 72/79/79 85/95/95 84/93/93
f 84/93/93 85/95/95 39/41/41
f 84/93/93 39/41/41 38/40/40
f 34/36/36 70/77/77 86/96/96
f 86/96/96 87/97/97 34/36/36
f 71/78/78 40/42/42 87/97/97
f 87/97/97 86/96/96 71/78/78
f 40/42/42 36/38/38 88/98/98
f 88/98/98 87/97/97 40/42/42
f 32/34/34 34/36/36 87/97/97
f 87/97/97 88/98/98 32/34/34
f 33/35/35 32/34/34 88/98/98
f 88/98/98 89/99/99 33/35/35
f 36/38/38 39/41/41 89/99/99
f 89/99/99 88/98/98 36/38/38
f 39/41/41 85/95/95 90/100/100
f 90/100/100 89/99/99 39/41/41
f 35/37/37 33/35/35 89/99/99
f 89/99/99 90/100/100 35/37/37
f 69/76/76 35/37/37 90/100/100
f 90/100/100 91/101/101 69/76/76
f 85/95/95 72/79/79 91/101/101
f 91/101/101 90/100/100 85/95/95
f 72/79/79 71/78/78 86/96/96
f 86/96/96 91/101/101 72/79/79
f 70/77/77 69/76/76 91/101/101
f 91/101/101 86/96/96 70/77/77
f 92/102/102 44/47/47 76/83/83
f 92/102/102 76/83/83 73/80/80
f 73/80/80 84/94/94 92/102/102
f 92/102/102 84/94/94 38/40/40
f 92/102/102 43/46/46 44/47/47
f 37/39/39 43/45/45 92/102/102
f 92/102/102 38/40/40 37/39/39
f 75/82/82 76/83/83 44/47/47
f 75/82/82 44/47/47 42/44/44
f 23/25/25 60/65/65 66/73/73
f 23/25/25 66/73/73 29/31/31
f 23/25/25 29/31/31 24/26/26
f 23/25/25 24/26/26 4/4/4
