{"accessors" : [{"bufferView" : 0, "byteOffset" : 0, "componentType" : 5123, "count" : 1224, "type" : "SCALAR", "max" : [233], "min" : [0]}, {"bufferView" : 1, "byteOffset" : 0, "componentType" : 5126, "count" : 234, "type" : "VEC3", "max" : [0, 0.12294399738311768, 0.2400519996881485], "min" : [-0.08891899883747101, -0.098191998898983, -0.07470700144767761], "name" : "POSITION"}, {"bufferView" : 1, "byteOffset" : 12, "componentType" : 5126, "count" : 234, "type" : "VEC2", "max" : [0.9998670220375061, 0.9999369978904724], "min" : [0.4999310076236725, 0.0026819705963134766], "name" : "TEXCOORD_0"}, {"bufferView" : 1, "byteOffset" : 20, "componentType" : 5126, "count" : 234, "type" : "VEC3", "max" : [0.7483612895011902, 0.9970327615737915, 0.9938808083534241], "min" : [-0.9990477561950684, -0.9287154674530029, -0.9979327917098999], "name" : "NORMAL"}], "asset" : {"generator" : "Aspose.3D 24.6.0", "version" : "2.0"}, "buffers" : [{"uri" : "buffer.bin", "byteLength" : 9944}], "bufferViews" : [{"buffer" : 0, "byteOffset" : 0, "byteLength" : 2448, "target" : 34963}, {"buffer" : 0, "byteOffset" : 2452, "byteLength" : 7488, "byteStride" : 32, "target" : 34962}], "meshes" : [{"primitives" : [{"attributes" : {"POSITION" : 1, "TEXCOORD_0" : 2, "NORMAL" : 3}, "indices" : 0, "mode" : 4}], "name" : ""}], "nodes" : [{"mesh" : 0, "name" : ""}], "scene" : 0, "scenes" : [{"nodes" : [0]}]}